<svg width="18" height="18" viewBox="0 0 18 18" fill="none" xmlns="http://www.w3.org/2000/svg">
<path d="M9.75129 1.44997C9.75129 1.10249 9.4696 0.820801 9.12212 0.820801C8.77464 0.820801 8.49295 1.10249 8.49295 1.44997V12.1966C8.22227 11.9219 7.90047 11.5176 7.43219 10.927L6.25954 9.44804C6.04365 9.17576 5.64791 9.13004 5.37563 9.34593C5.10335 9.56182 5.05764 9.95756 5.27353 10.2298L6.47 11.7388C6.91729 12.303 7.28638 12.7685 7.61673 13.1001C7.95574 13.4405 8.33201 13.7226 8.81284 13.7992C8.91528 13.8155 9.01861 13.8237 9.12212 13.8237C9.22563 13.8237 9.32896 13.8155 9.4314 13.7992C9.91223 13.7226 10.2885 13.4404 10.6275 13.1001C10.9579 12.7685 11.327 12.303 11.7742 11.7388L12.9707 10.2298C13.1866 9.95756 13.1409 9.56182 12.8686 9.34593C12.5963 9.13004 12.2006 9.17576 11.9847 9.44804L10.8121 10.927C10.3438 11.5176 10.022 11.9219 9.75129 12.1966V1.44997Z" fill="white"/>
<path d="M16.3367 7.78328C16.128 7.50544 15.7336 7.44939 15.4557 7.65808C15.1779 7.86677 15.1218 8.26118 15.3305 8.53901C15.7781 9.13483 16.043 9.87449 16.043 10.6778V11.5167C16.043 12.3201 16.0411 12.6486 15.9991 12.9134C15.7575 14.4389 14.561 15.6354 13.0354 15.877C12.7706 15.919 12.4422 15.9209 11.6388 15.9209H6.60543C5.80205 15.9209 5.47361 15.919 5.2088 15.877C3.68323 15.6354 2.48674 14.4389 2.24512 12.9134C2.20318 12.6486 2.20122 12.3201 2.20122 11.5167V10.6778C2.20122 9.87449 2.46617 9.13483 2.91371 8.53901C3.1224 8.26118 3.06634 7.86677 2.78851 7.65808C2.51067 7.44939 2.11627 7.50544 1.90758 7.78328C1.30198 8.58953 0.942878 9.59265 0.942878 10.6778L0.942875 11.5845C0.942818 12.2993 0.942783 12.7347 1.00227 13.1102C1.32917 15.1742 2.94794 16.793 5.01195 17.1199C5.3875 17.1794 5.82288 17.1793 6.53765 17.1793H11.7066C12.4214 17.1793 12.8567 17.1794 13.2323 17.1199C15.2963 16.793 16.9151 15.1742 17.242 13.1102C17.3015 12.7347 17.3014 12.2993 17.3014 11.5845L17.3014 10.6778C17.3014 9.59265 16.9423 8.58953 16.3367 7.78328Z" fill="white"/>
</svg>
